<?xml version="1.0" encoding="utf-8"?>
<!-- Generator: Adobe Illustrator 21.0.0, SVG Export Plug-In . SVG Version: 6.00 Build 0)  -->
<svg version="1.1" id="图层_1" xmlns="http://www.w3.org/2000/svg" xmlns:xlink="http://www.w3.org/1999/xlink" x="0px" y="0px"
	 viewBox="0 0 350 81" style="enable-background:new 0 0 350 81;" xml:space="preserve">
<style type="text/css">
	.st0{fill:#FFFFFF;}
</style>
<g>
	<path class="st0" d="M343.1,10.8l-336.2,0c-3.8,0-6.9,3.1-6.9,6.9v45.7c0,3.8,3.1,6.9,6.9,6.9l336.2,0c3.8,0,6.9-3.1,6.9-6.9V17.6
		C350,13.9,346.9,10.8,343.1,10.8z M171.7,66.8H6.9c-1.9,0-3.5-1.5-3.5-3.4V17.6c0-1.9,1.6-3.4,3.5-3.4h164.9V66.8z M216.2,55.7
		L216.2,55.7c-0.5,0.4-1,0.7-1.5,1.1c-8.8,5.7-20.7,3.2-26.4-5.6c-5.7-8.8-3.2-20.6,5.6-26.3c8.8-5.7,20.7-3.2,26.4,5.6
		c0.3,0.5,0.6,1,0.9,1.5c0,0,0,0,0,0c0.2,0.5,0.1,1.1-0.4,1.3L203,44.9c-0.5,0.3-1.1,0.2-1.5-0.3l-0.9-1.4c-0.8-1.3-0.5-3,0.8-3.8
		l11.4-7.4c0.5-0.3,0.6-1,0.3-1.5c-0.1-0.1-0.1-0.2-0.2-0.2c-4.5-3.6-10.9-4.2-16-0.9c-6.3,4.1-8.1,12.5-4,18.7
		c4.1,6.3,12.5,8.1,18.8,4c0,0,0,0,0,0c0,0,0,0,0,0c1.3-0.8,3-0.4,3.8,0.8l0.9,1.4l0,0l0,0C216.7,54.8,216.6,55.4,216.2,55.7z
		 M222.3,46.7l-1.8,1.2c-0.5,0.3-1.1,0.2-1.5-0.3l-2.3-3.6c-0.3-0.5-0.2-1.1,0.3-1.5l3.6-2.3c0.5-0.3,1.1-0.2,1.5,0.3l1.2,1.8
		C224.2,43.8,223.7,45.8,222.3,46.7z M238.6,57.9c0,0.4-0.3,0.7-0.7,0.7l-3.1,0c-2.2,0-4-1.8-4-4v-22c0-0.4,0.3-0.7,0.7-0.7h2.8
		c0.4,0,0.7,0.3,0.7,0.7l0,20.9c0,0.5,0.4,0.9,0.9,0.9h1.9c0.4,0,0.7,0.3,0.7,0.7V57.9z M241,35.5c0,0.4-0.3,0.7-0.7,0.7h-2.5
		c-0.4,0-0.7-0.3-0.7-0.7v-4.9c0-0.7-0.6-1-1.1-1.1h-4.7c-0.4,0-0.7-0.4-0.7-0.8v-5.2c0-0.4,0.3-0.7,0.7-0.7h3.1
		c0.4,0,0.7,0.3,0.7,0.7v1.8h3.8c1.2,0,2.1,0.9,2.1,2.1V35.5z M267.6,45.9c0,0.3-0.2,0.5-0.5,0.5h-6.3v7c0,0.6,0.5,1,1,1h4.4
		c0.8,0,1.5,0.7,1.5,1.5l0,2c0,0.4-0.3,0.7-0.7,0.7l-6.4,0c-2.2,0-4-1.8-4-4.2V36.1h-5.9v6.1h2.1c0.3,0,0.5,0.2,0.5,0.5v3.1
		c0,0.3-0.2,0.5-0.5,0.5h-2.1v8.2c0,2.2-1.8,4-4,4l-3.1,0c-0.4,0-0.7-0.3-0.7-0.7v-2.8c0-0.4,0.3-0.7,0.7-0.7h2
		c0.5,0,0.9-0.4,0.9-0.9v-7.1h-3.1c-0.3,0-0.5-0.2-0.5-0.5v-3.1c0-0.3,0.2-0.5,0.5-0.5h3.1v-6.1h-2.9c-0.4,0-0.7-0.3-0.7-0.7v-2.8
		c0-0.4,0.3-0.7,0.7-0.7h2.9v-5h-2.9c-0.4,0-0.7-0.3-0.7-0.7v-2.8c0-0.4,0.3-0.7,0.7-0.7h9.1c0.4,0,0.7,0.3,0.7,0.7v2.8
		c0,0.4-0.3,0.7-0.7,0.7h-2v5h5.9v-8.4c0-0.4,0.3-0.7,0.7-0.7h2.8c0.4,0,0.7,0.3,0.7,0.7V32h6.2c0.4,0,0.7,0.3,0.7,0.7l0,2.8
		c0,0.4-0.3,0.7-0.7,0.7l-6.2,0v6.1h6.3c0.3,0,0.5,0.2,0.5,0.5V45.9z M267.6,26.3c0,0.4-0.3,0.7-0.7,0.7h-2.8
		c-0.4,0-0.7-0.3-0.7-0.7v-2.8c0-0.4,0.3-0.7,0.7-0.7h1.4c1.2,0,2.1,0.9,2.1,2.1V26.3z M289.3,40.2v14.2c0,2.3-1.9,4.2-4.2,4.2h-8.4
		c-0.4,0-0.7-0.3-0.7-0.6l0-2.1c0-0.9,0.7-1.6,1.6-1.6l6.4,0c0.5,0,1-0.4,1-1V38.5c0-0.5,0.2-1.1,0.6-1.5l7.6-9.2
		c0.1-0.1,0.1-0.2,0.1-0.3c0-0.3-0.2-0.5-0.5-0.5l-20.1,0c0,0-0.4,0-0.4,0l-0.2,0c-0.3,0-0.6-0.1-0.8-0.2c-0.5-0.2-0.8-0.8-0.8-1.4
		v-1.9c0-0.4,0.3-0.7,0.7-0.7l27.1,0h0.1c0,0,0.1,0,0.1,0l0,0l0,0l0,0c0,0,0,0,0.1,0l0.1,0c0,0,0,0,0,0c0,0,0,0,0,0l0.1,0
		c0,0,0.1,0,0.1,0c0,0,0,0,0,0c0,0,0.1,0,0.2,0.1l0,0c0.8,0.3,1.3,1.1,1.3,1.9v0.8c0,0.9-0.2,1-0.2,1.1C300,27,290,38.6,289.9,38.7
		C289.6,39.1,289.3,39.7,289.3,40.2z M298.3,40.1c0-0.2,0.1-0.3,0.2-0.5l0,0c0.2-0.3,13.3-15.6,13.5-15.7c0.1-0.1,0.3-0.2,0.5-0.3
		c0,0,0,0,0.1,0l0,0c0.2-0.1,0.3-0.1,0.5-0.2c0,0,0.1,0,0.1,0c0,0,0.1,0,0.1,0c0.1,0,0.1,0,0.2,0h3.4c0.4,0,0.7,0.3,0.7,0.7
		c0,0.2-0.1,0.3-0.2,0.5l-13.4,15.6c0,0-0.1,0.1-0.1,0.1c-0.1,0.1-0.3,0.3-0.5,0.3l-0.1,0c-0.2,0.1-0.3,0.1-0.5,0.2l-0.1,0
		c0,0-0.1,0-0.1,0c-0.1,0-0.1,0-0.2,0H299C298.6,40.7,298.3,40.4,298.3,40.1z M331,58.6h-29.6c-1.2,0-2.1-0.9-2.1-2.1v-1.2
		c0-0.4,0.2-0.7,0.4-0.9L325,24.8c0,0,0.1-0.1,0.1-0.1c0.1-0.1,0.3-0.3,0.5-0.3c0,0,0.1,0,0.1,0c0.2-0.1,0.3-0.1,0.5-0.2l0.1,0
		c0,0,0.1,0,0.1,0c0.1,0,0.1,0,0.2,0h3.8c0.4,0,0.7,0.3,0.7,0.7c0,0.2-0.1,0.3-0.2,0.5l-24.1,28.3c-0.1,0.1-0.1,0.2-0.1,0.3
		c0,0.3,0.2,0.5,0.5,0.5l22.7,0c0.5,0,0.9-0.4,0.9-0.9v-5.4c0-0.4,0.3-0.7,0.7-0.7h2c0.9,0,1.6,0.7,1.6,1.6v0.6c0,0,0,0,0,0l0,5.1
		l0,0C335.1,56.8,333.2,58.6,331,58.6z"/>
	<g>
		<path class="st0" d="M23.7,25.1h-4.4l0.1-1.9h-5.2l-0.8,11.3h5.3l0.4-5h1.5l-0.3,5h5.5l0.4-7.2C26.2,26,25,25.1,23.7,25.1z"/>
		<path class="st0" d="M21.8,35.7H16v20.8c0,1.5,1.6,2.3,2.9,2.3h5.7v-4.6h-2.7V35.7z"/>
		<path class="st0" d="M44.7,23.2l-5.4,0l0.6,9.7h-4.5v-4.8h2.7v-4.6h-11v4.6h2.8v4.8h-3.1v4.6h3.1v5h-3.1v4.6h3.1v7.1h-3v4.6h5.5
			c1.3,0,2.9-0.8,2.9-2.3v-9.4h1.9v-4.6h-1.9v-5h4.8l0.3,5h-1.4v4.6h1.7l0.7,9.8c0.1,1.3,1.4,1.9,2.5,1.9h5.1v-4.5h-2.5l-0.5-7.1h3
			v-4.6h-3.3l-0.3-5h3.8v-4.6h-4.1L44.7,23.2z"/>
		<polygon class="st0" points="49.3,29.7 48.9,23.4 45.7,23.4 46.2,29.7 		"/>
		<path class="st0" d="M81.6,23H52.6v4.7h23.2c0.2,0,0.3,0.2,0.1,0.4L68,36.2c-0.6,0.6-1.2,1.6-1.2,2.5v15.4h-7.3v4.7h9.9
			c1.6,0,3.4-1,3.4-2.8V40.2c0-0.6-0.1-0.8,0.8-1.8l10-10.7c0.7-0.8,0.8-1.4,0.8-2.4C84.4,23.7,83.8,23,81.6,23z"/>
		<polygon class="st0" points="121.4,29.4 120.6,22.8 116.5,22.8 117.3,29.4 		"/>
		<polygon class="st0" points="88.1,58.8 91.7,58.8 92.5,46.2 88.7,46.2 		"/>
		<path class="st0" d="M114.6,22.6h-5.4l-0.5,8.1h-2.5v4.7h2.2L107,58.8h5.4l1.4-23.4h1v21.1c0,1.3,1.4,2.1,2.5,2.1h5.2V54H120V35.4
			h2.3v-4.7h-8.2L114.6,22.6z"/>
		<polygon class="st0" points="99.4,22.7 93.5,22.7 93.5,24.8 87.4,24.8 87.4,29.5 105.5,29.5 105.5,24.8 99.4,24.8 		"/>
		<path class="st0" d="M88.5,33.4v11.3h5.4l-0.1,9.4h-1.1v4.7h4.2c1.5,0,2.7-0.9,2.7-2.1V44.8h2.2c1.5,0,3-1,3.1-2.5V30.9H91.6
			C90.1,30.9,88.6,31.8,88.5,33.4z M93.9,35.6h5.3v4.5h-5.3V35.6z"/>
		<path class="st0" d="M126.2,22.9v4.3h9.7v1.9h-6.3c-1.4,0-2.8,0.9-2.8,2.5v9.2h29.9c1.4,0,2.8-0.9,2.8-2.5v-9.2h-9.1v-1.9h9.8
			v-4.3H126.2z M135.9,36.8h-4.2v-3.5h4.2V36.8z M145,36.8h-3.6v-3.5h3.6V36.8z M145,29.1h-3.6v-1.9h3.6V29.1z M154.9,33.2v3.5h-4.3
			v-3.5H154.9z"/>
		<polygon class="st0" points="100.3,46.2 100.9,58.8 104.6,58.8 104.1,46.2 		"/>
		<path class="st0" d="M156.1,42.1h-5.3v1.1h-14.5l-0.1-1.1h-5.3v1.1h-4.3v4.4h4.3v3.3c0,1.3,0.5,1.7,2.1,2.2l1.2,0.3l-6.4,1.7
			l1.9,4.3l13.8-3.6l14,4l1.5-4.3l-6.3-2.1l1.2-0.3c1.6-0.5,2.2-0.9,2.2-2.3v-3.3h4.3l0.1-4.4h-4.4V42.1z M150.7,49.2l-7.3,1.9
			l-7.3-1.9v-1.6h14.6V49.2z"/>
	</g>
</g>
</svg>
